<svg xmlns="http://www.w3.org/2000/svg" width="33" height="40" viewBox="0 0 33 40">
  <g>
    <path fill="#2164E8" fill-rule="evenodd" d="M28.60910034 12.21422577c1.17636872 1.4322586 2.22299195 2.98026276 2.98525238 4.68296432 2.22299195 4.93934632 1.78401184 10.96261979-1.13744354 15.5157776-2.92037964 4.55315398-8.20647049 7.49339294-13.62122726 7.58426284-5.41583634.10276794-10.80464554-2.65681839-13.90666771-7.0812416-1.96458054-2.82449342-3.03715134-6.26883698-2.92037964-9.712101.07676697-2.15379333.62062072-4.28271483 1.4985733-6.25585174 1.42180634-3.2117691 3.68372154-5.75175476 6.1521492-8.19005584C10.61865997 5.84262085 13.54011917 2.9153595 16.49942017 0c2.5333023 2.48914337 5.1044464 4.99235153 7.63774871 7.48149681 1.52560425 1.50906372 3.0890503 3.05599022 4.47193146 4.73272896zM5.8504734 20.77856827c0 5.85560226 4.75521279 10.61537552 10.63597298 10.61537552 5.880764 0 10.63597488-4.75977326 10.63597488-10.61537552 0-1.35437012-.30922699-2.56594849-.46492767-3.12089539-.49087143-1.72866058-1.38288116-3.32751083-4.78224182-6.9773922-1.717659-1.85815048-3.52017212-3.63594436-5.40177917-5.32769966C14.62259674 7.0595932 12.83763885 8.836792 11.122509 10.6802807c-3.33448791 3.58497428-4.26433754 5.13298225-4.79413604 6.95142936-.16867066.54196549-.47789956 1.78059006-.47789956 3.14685822z"/>
    <ellipse cx="16.472" cy="20.03" fill="#2164E8" rx="6.682" ry="6.668"/>
  </g>
</svg>
